<?xml version="1.0" encoding="UTF-8"?>
<svg id="Layer_1" data-name="Layer 1" xmlns="http://www.w3.org/2000/svg" xmlns:xlink="http://www.w3.org/1999/xlink" viewBox="0 0 2150.81 326.81">
  <defs>
    <style>
      .cls-1 {
        fill: url(#linear-gradient);
      }
    </style>
    <linearGradient id="linear-gradient" x1="23.66" y1="164.02" x2="2141.34" y2="164.02" gradientUnits="userSpaceOnUse">
      <stop offset="0" stop-color="#52c3c6"/>
      <stop offset=".07" stop-color="#4abbc2"/>
      <stop offset=".18" stop-color="#35a5ba"/>
      <stop offset=".32" stop-color="#1382ab"/>
      <stop offset=".35" stop-color="#0a79a8"/>
      <stop offset="1" stop-color="#0978a7"/>
    </linearGradient>
  </defs>
  <path class="cls-1" d="M23.66,62.31L57.42,27.95l2.43,260.67-36.19-37.77V62.31ZM58.59,153.96l.38,40.47,75.29,55.47-8.01,39.27,28.29-28.29-9.95-36.3-86-70.62ZM59.5,251.12l.35,37.5h5.83l-.26-37.62-5.91.12ZM95.67,250.7l.24,38.54h30.83l7.52-39.54-38.6,1ZM67.29,25.22l2.08,286.76h22.63V25.22h-24.72ZM92.01,64.5l31.26,30.76v76.22l31.26-26.32v-57.4l-62.53-62.53v39.27ZM123.27,142.78h-31.26v29.87l31.26-1.18v-28.7ZM398.09,137.84c0,13.35-6.43,26.21-22.5,33.38,20.27,6.18,27.69,27.69,27.69,38.57,0,38.57-28.93,50.93-64.78,50.93h-82.09V87.65h82.09c34.12,0,59.59,15.33,59.59,50.19ZM288.56,157.12h49.94c20.52,0,27.2-8.65,27.2-18.54,0-7.91-6.43-21.26-27.2-21.26h-49.94v39.81ZM288.56,230.31h49.94c13.35,0,32.39-4.45,32.39-20.77s-19.04-23.74-32.39-23.74h-49.94v44.5ZM434.93,260.72V87.65h32.39v173.07h-32.39ZM672.38,174.93c-.47,42.9-26.78,85.79-85.08,85.79s-85.31-41.95-85.31-85.55c0-52.37,37.92-87.45,86.03-87.45,56.64.47,84.84,44.08,84.37,87.21ZM587.31,234.58c40.82,0,56.16-30.68,56.65-59.13.41-24.34-20.93-61.2-55.91-61.85-36.86,0-58.63,27.71-57.64,62.09.74,28.45,16.08,58.88,56.9,58.88ZM865.6,209.79v50.93h-32.64V87.65c26.95,0,54.64-.25,81.59-.25,85.05,0,85.3,121.65,0,122.39h-48.95ZM865.6,179.54h48.95c41.79,0,41.54-61.32,0-61.32h-48.95v61.32ZM1134.46,260.72h-129.56V87.65h129.56v31.65h-97.17v39.81h93.71v30.41h-93.71v39.07h97.17v32.14ZM1202.14,209.79v50.93h-32.64V87.65c26.95,0,54.64-.25,81.59-.25,85.05,0,85.3,121.65,0,122.39h-48.96ZM1202.1,179.54h48.96c41.78,0,41.54-61.32,0-61.32h-48.96v61.32ZM1379.84,117.26h-54.89v-29.67h142.42v29.67h-54.89v143.4h-32.64V117.26ZM1492.36,260.72V87.65h32.39v173.07h-32.39ZM1720.33,172.7c.74,43.76-25.96,88.02-86.54,88.02h-67.99V87.65h67.99c59.34,0,85.8,42.28,86.54,85.05ZM1598.19,228.99h35.6c39.31,0,54.89-28.68,54.15-56.87-.74-26.95-16.57-53.9-54.15-53.9h-35.6v110.77ZM1880.81,260.72h-129.56V87.65h129.56v31.65h-97.17v39.81h93.71v30.41h-93.71v39.07h97.17v32.14ZM2072.75,21.67h-15.79v-5.62h38.22v5.62h-15.79v46.57h-6.64V21.67ZM2097.81,16.05h8l10,27.89c1.26,3.56,2.45,7.25,3.71,10.87h.32c1.26-3.63,2.35-7.31,3.61-10.87l9.89-27.89h8v52.19h-6.18v-28.74c0-4.55.51-10.82.85-15.43h-.32l-4.14,11.9-9.83,26.99h-4.4l-9.88-26.99-4.14-11.9h-.31c.33,4.61.84,10.88.84,15.43v28.74h-6.02V16.05ZM711.35,191.46v-32.93h82.47v32.93h-82.47ZM2029.33,130.82c-1.15-1.15-3.24-2.71-6.27-4.67-3.04-1.97-6.73-3.89-11.07-5.78-4.35-1.88-9.06-3.48-14.14-4.8-5.09-1.31-10.25-1.97-15.5-1.97-9.35,0-16.32,1.72-20.91,5.17-4.59,3.44-6.89,8.28-6.89,14.51,0,3.61.86,6.6,2.58,8.98,1.72,2.38,4.22,4.47,7.5,6.27,3.28,1.81,7.42,3.44,12.42,4.92,5,1.48,10.78,3.04,17.34,4.67,8.53,2.3,16.27,4.76,23.25,7.38,6.97,2.62,12.87,5.9,17.71,9.84,4.83,3.94,8.57,8.65,11.19,14.15,2.62,5.5,3.94,12.26,3.94,20.29,0,9.35-1.76,17.34-5.29,23.98-3.53,6.64-8.28,12.02-14.27,16.11-5.99,4.1-12.88,7.1-20.66,8.98-7.79,1.88-15.95,2.83-24.48,2.83-13.12,0-26.08-1.97-38.87-5.9s-24.27-9.51-34.44-16.73l15.01-29.27c1.48,1.48,4.14,3.41,8,5.78,3.85,2.38,8.4,4.76,13.65,7.13,5.25,2.38,11.07,4.39,17.47,6.03,6.4,1.64,12.95,2.46,19.68,2.46,18.7,0,28.04-5.98,28.04-17.96,0-3.77-1.07-6.97-3.2-9.59-2.13-2.62-5.17-4.92-9.1-6.89-3.94-1.97-8.69-3.77-14.27-5.41-5.58-1.64-11.81-3.44-18.7-5.41-8.36-2.29-15.62-4.8-21.77-7.5-6.15-2.71-11.28-5.9-15.38-9.59-4.1-3.69-7.18-7.95-9.22-12.79-2.05-4.84-3.08-10.62-3.08-17.34,0-8.86,1.64-16.73,4.92-23.62,3.28-6.89,7.83-12.63,13.65-17.22,5.82-4.59,12.58-8.08,20.29-10.46,7.71-2.38,15.99-3.57,24.85-3.57,12.3,0,23.62,1.93,33.95,5.78,10.33,3.85,19.35,8.41,27.06,13.65l-15.01,27.55Z"/>
</svg>