<?xml version="1.0" encoding="UTF-8"?>
<svg id="Layer_1" data-name="Layer 1" xmlns="http://www.w3.org/2000/svg" xmlns:xlink="http://www.w3.org/1999/xlink" viewBox="0 0 2115.59 468.29">
  <defs>
    <style>
      .cls-1 {
        fill: url(#linear-gradient);
      }
    </style>
    <linearGradient id="linear-gradient" x1="113.21" y1="217.93" x2="2081.37" y2="217.93" gradientUnits="userSpaceOnUse">
      <stop offset="0" stop-color="#185b30"/>
      <stop offset=".15" stop-color="#377e3a"/>
      <stop offset=".3" stop-color="#55a045"/>
      <stop offset=".44" stop-color="#5ba880"/>
      <stop offset=".56" stop-color="#61aeaf"/>
      <stop offset=".65" stop-color="#64b2cd"/>
      <stop offset=".71" stop-color="#66b4d8"/>
      <stop offset=".78" stop-color="#559dc4"/>
      <stop offset=".93" stop-color="#2c6493"/>
      <stop offset="1" stop-color="#1a4a7d"/>
    </linearGradient>
  </defs>
  <path class="cls-1" d="M113.21,92.5l39.83-40.55,2.87,307.6-42.7-44.57V92.5ZM154.42,200.64l.45,47.75,88.85,65.46-9.45,46.34,33.39-33.39-11.74-42.84-101.49-83.34ZM155.49,315.3l.41,44.25h6.88l-.31-44.39-6.98.14ZM198.18,314.81l.29,45.48h36.38l8.88-46.66-45.55,1.18ZM164.69,48.73l2.46,338.4h26.71V48.73h-29.17ZM193.86,95.07l36.89,36.3v89.94l36.89-31.06v-67.74l-73.79-73.79v46.35ZM230.75,187.45h-36.89v35.25l36.89-1.39v-33.86ZM559.62,179.81c0,13.94-6.71,27.37-23.5,34.86,21.17,6.46,28.92,28.92,28.92,40.29,0,40.28-30.21,53.2-67.66,53.2h-85.73V127.39h85.73c35.64,0,62.24,16.01,62.24,52.42ZM445.23,199.95h52.16c21.43,0,28.41-9.04,28.41-19.37,0-8.26-6.72-22.21-28.41-22.21h-52.16v41.58ZM445.23,276.39h52.16c13.95,0,33.83-4.65,33.83-21.69s-19.88-24.79-33.83-24.79h-52.16v46.48ZM598.1,308.15V127.39h33.83v180.77h-33.83ZM849.88,218.8c-.51,46.74-29.18,93.48-92.71,93.48s-92.97-45.71-92.97-93.22c0-57.07,41.32-95.29,93.74-95.29,61.72.52,92.45,48.03,91.93,95.03ZM757.17,281.04c42.61,0,58.62-32.02,59.14-61.72.51-30.21-16.79-63.79-58.36-64.56-38.48,0-61.2,28.92-60.17,64.82.78,29.7,16.78,61.46,59.39,61.46ZM916.04,254.95v53.2h-34.09V127.39c28.15,0,57.07-.26,85.22-.26,88.83,0,89.09,127.05,0,127.83h-51.13ZM916.04,223.71h51.13c43.64,0,43.38-64.04,0-64.04h-51.13v64.04ZM1197,308.15h-135.32V127.39h135.32v33.05h-101.49v41.58h97.87v31.76h-97.87v40.8h101.49v33.57ZM1267.5,254.95v53.2h-34.09V127.39c28.15,0,57.07-.26,85.22-.26,88.83,0,89.09,127.05,0,127.83h-51.13ZM1267.5,223.71h51.13c43.64,0,43.38-64.04,0-64.04h-51.13v64.04ZM1453.43,158.37h-57.33v-30.99h148.75v30.99h-57.33v149.78h-34.09v-149.78ZM1570.66,308.15V127.39h33.83v180.77h-33.83ZM1808.76,216.22c.77,45.71-27.12,91.93-90.38,91.93h-71.02V127.39h71.02c61.98,0,89.61,44.16,90.38,88.83ZM1681.19,275.35h37.19c41.06,0,57.33-29.96,56.56-59.39-.78-28.15-17.3-56.3-56.56-56.3h-37.19v115.69ZM1976.61,308.15h-135.32V127.39h135.32v33.05h-101.49v41.58h97.87v31.76h-97.87v40.8h101.49v33.57ZM2009.74,60.91h-16.49v-5.87h39.92v5.87h-16.49v48.64h-6.94v-48.64ZM2035.91,55.04h8.35l10.45,29.13c1.31,3.72,2.56,7.57,3.88,11.35h.33c1.31-3.79,2.45-7.64,3.77-11.35l10.33-29.13h8.35v54.51h-6.45v-30.01c0-4.75.53-11.3.89-16.12h-.33l-4.33,12.43-10.27,28.19h-4.6l-10.32-28.19-4.32-12.43h-.32c.34,4.82.88,11.37.88,16.12v30.01h-6.28v-54.51Z"/>
</svg>