<?xml version="1.0" encoding="UTF-8"?>
<svg id="Layer_1" data-name="Layer 1" xmlns="http://www.w3.org/2000/svg" xmlns:xlink="http://www.w3.org/1999/xlink" viewBox="0 0 300 80">
  <defs>
    <style>
      .cls-1 {
        fill: url(#linear-gradient);
      }
    </style>
    <linearGradient id="linear-gradient" x1="7.28" y1="40" x2="297.28" y2="40" gradientUnits="userSpaceOnUse">
      <stop offset="0" stop-color="#175b2f"/>
      <stop offset=".15" stop-color="#367d3a"/>
      <stop offset=".3" stop-color="#549f45"/>
      <stop offset=".43" stop-color="#5aa67e"/>
      <stop offset=".56" stop-color="#60adad"/>
      <stop offset=".65" stop-color="#63b1cb"/>
      <stop offset=".71" stop-color="#65b3d6"/>
      <stop offset=".78" stop-color="#549cc3"/>
      <stop offset=".93" stop-color="#2b6392"/>
      <stop offset="1" stop-color="#18497c"/>
    </linearGradient>
  </defs>
  <path class="cls-1" d="M7.28,14.05l6.62-8.39.48,63.63-7.09-9.22V14.05ZM14.13,36.42l.07,9.88,14.76,13.54-1.57,9.59,5.55-6.91-1.95-8.86-16.86-17.24ZM14.31,60.14l.07,9.15h1.14l-.05-9.18-1.16.03ZM21.4,60.04l.05,9.41h6.04l1.47-9.65-7.57.24ZM15.84,5l.41,70h4.44V5h-4.84ZM20.68,14.59l6.13,7.51v18.61l6.13-6.43v-14.01l-12.26-15.26v9.59ZM26.81,33.7h-6.13v7.29l6.13-.29v-7ZM58.4,23.54h-12.93v39.35h12.93c5.65,0,10.2-2.81,10.2-11.58,0-2.47-1.17-7.36-4.36-8.77,2.53-1.63,3.54-4.55,3.54-7.59,0-7.93-4.01-11.41-9.39-11.41ZM50.53,30.28h7.87c3.27,0,4.28,3.04,4.28,4.83,0,2.25-1.05,4.22-4.28,4.22h-7.87v-9.05ZM50.53,45.85h7.87c2.1,0,5.1,1.86,5.1,5.4s-3,4.72-5.1,4.72h-7.87v-10.12ZM78.69,62.89V23.54h-5.1v39.35h5.1ZM97.7,22.75c-7.91,0-14.14,8.32-14.14,20.74,0,10.34,4.44,20.29,14.02,20.29s13.9-10.18,13.98-20.35c.08-10.23-4.56-20.58-13.86-20.69ZM88.62,43.61c-.16-7.81,3.27-14.11,9.07-14.11,6.27.17,8.88,7.48,8.8,14.05-.08,6.47-2.49,13.44-8.92,13.44s-8.84-6.91-8.96-13.38ZM129.25,51.31c13.44-.17,13.4-27.83,0-27.83-4.24,0-8.61.06-12.85.06v39.35h5.14v-11.58h7.71ZM121.54,30.56h7.71c6.54,0,6.58,13.94,0,13.94h-7.71v-13.94ZM163.91,55.58h-15.31v-8.88h14.76v-6.91h-14.76v-9.05h15.31v-7.2h-20.41v39.35h20.41v-7.31ZM182.25,51.31c13.44-.17,13.4-27.83,0-27.83-4.25,0-8.61.06-12.85.06v39.35h5.14v-11.58h7.71ZM174.54,30.56h7.71c6.54,0,6.58,13.94,0,13.94h-7.71v-13.94ZM202.58,62.89h5.14V30.28h8.65v-6.75h-22.43v6.75h8.65v32.61ZM225.36,62.89V23.54h-5.1v39.35h5.1ZM242.54,23.54h-10.71v39.35h10.71c9.54,0,13.75-10.06,13.63-20.01-.12-9.73-4.28-19.34-13.63-19.34ZM236.93,30.56h5.61c5.92,0,8.41,6.13,8.53,12.26.12,6.41-2.34,12.93-8.53,12.93h-5.61v-25.18ZM281.48,55.58h-15.31v-8.88h14.76v-6.91h-14.76v-9.05h15.31v-7.2h-20.41v39.35h20.41v-7.31ZM286.48,19.65h1.05v-10.59h2.49v-1.28h-6.02v1.28h2.49v10.59ZM290.43,19.65h.95v-6.53c0-1.03-.08-2.46-.13-3.51h.05l.65,2.71,1.56,6.14h.69l1.55-6.14.65-2.71h.05c-.05,1.05-.13,2.47-.13,3.51v6.53h.97V7.79h-1.26l-1.56,6.34c-.2.81-.37,1.65-.57,2.47h-.05c-.2-.82-.39-1.66-.58-2.47l-1.58-6.34h-1.26v11.87Z"/>
</svg>