<?xml version="1.0" encoding="UTF-8"?>
<svg id="Layer_1" data-name="Layer 1" xmlns="http://www.w3.org/2000/svg" xmlns:xlink="http://www.w3.org/1999/xlink" viewBox="0 0 300 80">
  <defs>
    <style>
      .cls-1 {
        fill: url(#linear-gradient);
      }
    </style>
    <linearGradient id="linear-gradient" x1="1.84" y1="40" x2="295.92" y2="40" gradientUnits="userSpaceOnUse">
      <stop offset="0" stop-color="#175b2f"/>
      <stop offset=".15" stop-color="#367d3a"/>
      <stop offset=".3" stop-color="#549f45"/>
      <stop offset=".43" stop-color="#5aa67e"/>
      <stop offset=".56" stop-color="#60adad"/>
      <stop offset=".65" stop-color="#63b1cb"/>
      <stop offset=".71" stop-color="#65b3d6"/>
      <stop offset=".78" stop-color="#549cc3"/>
      <stop offset=".93" stop-color="#2b6392"/>
      <stop offset="1" stop-color="#18497c"/>
    </linearGradient>
  </defs>
  <path class="cls-1" d="M1.84,18.87l6.71-6.83.48,51.81-7.19-7.51V18.87ZM8.78,37.09l.08,8.04,14.97,11.03-1.59,7.81,5.62-5.62-1.98-7.22-17.09-14.04ZM8.96,56.4l.07,7.45h1.16l-.05-7.48-1.18.02ZM16.15,56.32l.05,7.66h6.13l1.5-7.86-7.67.2ZM10.51,11.5l.41,57h4.5V11.5h-4.91ZM15.42,19.31l6.21,6.11v15.15l6.21-5.23v-11.41l-12.43-12.43v7.81ZM21.64,34.87h-6.21v5.94l6.21-.23v-5.7ZM53.67,26.59h-13.11v32.04h13.11c5.73,0,10.35-2.29,10.35-9.43,0-2.01-1.19-6-4.42-7.14,2.57-1.33,3.59-3.71,3.59-6.18,0-6.45-4.07-9.29-9.52-9.29ZM45.7,32.09h7.98c3.32,0,4.34,2.47,4.34,3.94,0,1.83-1.07,3.43-4.34,3.43h-7.98v-7.37ZM45.7,44.77h7.98c2.13,0,5.17,1.51,5.17,4.39s-3.04,3.85-5.17,3.85h-7.98v-8.24ZM74.25,58.64V26.59h-5.17v32.04h5.17ZM93.52,25.95c-8.02,0-14.34,6.77-14.34,16.89,0,8.42,4.5,16.53,14.22,16.53s14.1-8.29,14.18-16.57c.08-8.33-4.62-16.75-14.06-16.85ZM84.32,42.94c-.16-6.36,3.32-11.49,9.2-11.49,6.36.14,9,6.09,8.93,11.44-.08,5.26-2.53,10.94-9.04,10.94s-8.96-5.63-9.08-10.89ZM125.52,49.21c13.63-.14,13.59-22.66,0-22.66-4.3,0-8.73.05-13.03.05v32.04h5.21v-9.43h7.82ZM117.7,32.32h7.82c6.64,0,6.67,11.35,0,11.35h-7.82v-11.35ZM160.67,52.69h-15.52v-7.23h14.97v-5.63h-14.97v-7.37h15.52v-5.86h-20.69v32.04h20.69v-5.95ZM179.27,49.21c13.63-.14,13.59-22.66,0-22.66-4.3,0-8.73.05-13.03.05v32.04h5.21v-9.43h7.82ZM171.45,32.32h7.82c6.64,0,6.67,11.35,0,11.35h-7.82v-11.35ZM199.89,58.64h5.21v-26.55h8.77v-5.49h-22.75v5.49h8.77v26.55ZM222.99,58.64V26.59h-5.17v32.04h5.17ZM240.41,26.59h-10.86v32.04h10.86c9.68,0,13.94-8.19,13.82-16.3-.12-7.92-4.34-15.75-13.82-15.75ZM234.72,32.32h5.69c6,0,8.53,4.99,8.65,9.98.12,5.22-2.37,10.53-8.65,10.53h-5.69v-20.51ZM279.9,52.69h-15.52v-7.23h14.97v-5.63h-14.97v-7.37h15.52v-5.86h-20.69v32.04h20.69v-5.95ZM284.96,23.43h1.06v-8.62h2.52v-1.04h-6.11v1.04h2.52v8.62ZM288.97,23.43h.96v-5.32c0-.84-.08-2-.13-2.86h.05l.66,2.2,1.58,5h.7l1.57-5,.66-2.2h.05c-.05.85-.14,2.02-.14,2.86v5.32h.99v-9.66h-1.28l-1.58,5.16c-.2.66-.38,1.34-.58,2.01h-.05c-.2-.67-.39-1.35-.59-2.01l-1.6-5.16h-1.28v9.66Z"/>
</svg>